<?xml version="1.0" encoding="UTF-8" standalone="no"?>
<!DOCTYPE svg PUBLIC "-//W3C//DTD SVG 1.1//EN"
 "http://www.w3.org/Graphics/SVG/1.1/DTD/svg11.dtd">
<!-- Generated by graphviz version 2.43.0 (0)
 -->
<!-- Title: overview Pages: 1 -->
<svg width="957pt" height="787pt"
 viewBox="0.00 0.00 957.44 787.20" xmlns="http://www.w3.org/2000/svg" xmlns:xlink="http://www.w3.org/1999/xlink">
<g id="graph0" class="graph" transform="scale(1 1) rotate(0) translate(21.6 765.6)">
<title>overview</title>
<polygon fill="white" stroke="transparent" points="-21.6,21.6 -21.6,-765.6 935.84,-765.6 935.84,21.6 -21.6,21.6"/>
<g id="clust1" class="cluster">
<title>cluster_agents</title>
<path fill="white" stroke="#1c64f2" stroke-dasharray="5,2" d="M20,-523C20,-523 844,-523 844,-523 850,-523 856,-529 856,-535 856,-535 856,-639 856,-639 856,-645 850,-651 844,-651 844,-651 20,-651 20,-651 14,-651 8,-645 8,-639 8,-639 8,-535 8,-535 8,-529 14,-523 20,-523"/>
<text text-anchor="middle" x="432" y="-637.4" font-family="Helvetica,sans-Serif" font-size="12.00" fill="#1c64f2">Isolated agents, one terminal each</text>
<text text-anchor="middle" x="432" y="-624.4" font-family="Helvetica,sans-Serif" font-size="12.00" fill="#1c64f2">Read the generated LASTCONTEXT.md at session start. Write only their own delta and task file.</text>
</g>
<!-- human -->
<g id="node1" class="node">
<title>human</title>
<path fill="#fef3c7" stroke="#b45309" stroke-width="1.2" d="M537.5,-744C537.5,-744 326.5,-744 326.5,-744 320.5,-744 314.5,-738 314.5,-732 314.5,-732 314.5,-694 314.5,-694 314.5,-688 320.5,-682 326.5,-682 326.5,-682 537.5,-682 537.5,-682 543.5,-682 549.5,-688 549.5,-694 549.5,-694 549.5,-732 549.5,-732 549.5,-738 543.5,-744 537.5,-744"/>
<text text-anchor="middle" x="432" y="-723.6" font-family="Helvetica,sans-Serif" font-size="13.00" fill="#1f2933">Human (orchestrator)</text>
<text text-anchor="middle" x="432" y="-709.6" font-family="Helvetica,sans-Serif" font-size="13.00" fill="#1f2933">opens one terminal per agent</text>
<text text-anchor="middle" x="432" y="-695.6" font-family="Helvetica,sans-Serif" font-size="13.00" fill="#1f2933">and gives each a ROLE:</text>
</g>
<!-- a1 -->
<g id="node3" class="node">
<title>a1</title>
<path fill="#e1effe" stroke="#1c64f2" stroke-width="1.2" d="M260,-601C260,-601 36,-601 36,-601 30,-601 24,-595 24,-589 24,-589 24,-551 24,-551 24,-545 30,-539 36,-539 36,-539 260,-539 260,-539 266,-539 272,-545 272,-551 272,-551 272,-589 272,-589 272,-595 266,-601 260,-601"/>
<text text-anchor="middle" x="148" y="-580.6" font-family="Helvetica,sans-Serif" font-size="13.00" fill="#1f2933">Agent A</text>
<text text-anchor="middle" x="148" y="-566.6" font-family="Helvetica,sans-Serif" font-size="13.00" fill="#1f2933">branch feat/task&#45;a</text>
<text text-anchor="middle" x="148" y="-552.6" font-family="Helvetica,sans-Serif" font-size="13.00" fill="#1f2933">TDD; runs only the test it writes</text>
</g>
<!-- human&#45;&gt;a1 -->
<g id="edge1" class="edge">
<title>human&#45;&gt;a1</title>
<path fill="none" stroke="#52606d" stroke-width="1.1" d="M357.98,-681.98C335.89,-672.54 311.76,-661.77 290,-651 261.6,-636.95 230.88,-619.89 205.3,-605.13"/>
<polygon fill="#52606d" stroke="#52606d" stroke-width="1.1" points="206.55,-602.62 198.23,-601.04 203.75,-607.47 206.55,-602.62"/>
</g>
<!-- a2 -->
<g id="node4" class="node">
<title>a2</title>
<path fill="#e1effe" stroke="#1c64f2" stroke-width="1.2" d="M544,-601C544,-601 320,-601 320,-601 314,-601 308,-595 308,-589 308,-589 308,-551 308,-551 308,-545 314,-539 320,-539 320,-539 544,-539 544,-539 550,-539 556,-545 556,-551 556,-551 556,-589 556,-589 556,-595 550,-601 544,-601"/>
<text text-anchor="middle" x="432" y="-580.6" font-family="Helvetica,sans-Serif" font-size="13.00" fill="#1f2933">Agent B</text>
<text text-anchor="middle" x="432" y="-566.6" font-family="Helvetica,sans-Serif" font-size="13.00" fill="#1f2933">branch feat/task&#45;b</text>
<text text-anchor="middle" x="432" y="-552.6" font-family="Helvetica,sans-Serif" font-size="13.00" fill="#1f2933">TDD; runs only the test it writes</text>
</g>
<!-- human&#45;&gt;a2 -->
<g id="edge2" class="edge">
<title>human&#45;&gt;a2</title>
<path fill="none" stroke="#52606d" stroke-width="1.1" d="M432,-681.75C432,-660.56 432,-632.08 432,-609.31"/>
<polygon fill="#52606d" stroke="#52606d" stroke-width="1.1" points="434.8,-609.2 432,-601.2 429.2,-609.2 434.8,-609.2"/>
</g>
<!-- a3 -->
<g id="node5" class="node">
<title>a3</title>
<path fill="#e1effe" stroke="#1c64f2" stroke-width="1.2" d="M828,-601C828,-601 604,-601 604,-601 598,-601 592,-595 592,-589 592,-589 592,-551 592,-551 592,-545 598,-539 604,-539 604,-539 828,-539 828,-539 834,-539 840,-545 840,-551 840,-551 840,-589 840,-589 840,-595 834,-601 828,-601"/>
<text text-anchor="middle" x="716" y="-580.6" font-family="Helvetica,sans-Serif" font-size="13.00" fill="#1f2933">Agent N</text>
<text text-anchor="middle" x="716" y="-566.6" font-family="Helvetica,sans-Serif" font-size="13.00" fill="#1f2933">branch feat/task&#45;n</text>
<text text-anchor="middle" x="716" y="-552.6" font-family="Helvetica,sans-Serif" font-size="13.00" fill="#1f2933">TDD; runs only the test it writes</text>
</g>
<!-- human&#45;&gt;a3 -->
<g id="edge3" class="edge">
<title>human&#45;&gt;a3</title>
<path fill="none" stroke="#52606d" stroke-width="1.1" d="M506.02,-681.98C528.11,-672.54 552.24,-661.77 574,-651 602.4,-636.95 633.12,-619.89 658.7,-605.13"/>
<polygon fill="#52606d" stroke="#52606d" stroke-width="1.1" points="660.25,-607.47 665.77,-601.04 657.45,-602.62 660.25,-607.47"/>
</g>
<!-- approve -->
<g id="node2" class="node">
<title>approve</title>
<path fill="#fef3c7" stroke="#b45309" stroke-width="1.2" d="M565.5,-270C565.5,-270 298.5,-270 298.5,-270 292.5,-270 286.5,-264 286.5,-258 286.5,-258 286.5,-234 286.5,-234 286.5,-228 292.5,-222 298.5,-222 298.5,-222 565.5,-222 565.5,-222 571.5,-222 577.5,-228 577.5,-234 577.5,-234 577.5,-258 577.5,-258 577.5,-264 571.5,-270 565.5,-270"/>
<text text-anchor="middle" x="432" y="-249.6" font-family="Helvetica,sans-Serif" font-size="13.00" fill="#1f2933">Human approves every PR manually</text>
<text text-anchor="middle" x="432" y="-235.6" font-family="Helvetica,sans-Serif" font-size="13.00" fill="#1f2933">No merge without an explicit directive</text>
</g>
<!-- main -->
<g id="node9" class="node">
<title>main</title>
<path fill="#f5f7fa" stroke="#52606d" stroke-width="1.2" d="M533,-166C533,-166 331,-166 331,-166 325,-166 319,-160 319,-154 319,-154 319,-130 319,-130 319,-124 325,-118 331,-118 331,-118 533,-118 533,-118 539,-118 545,-124 545,-130 545,-130 545,-154 545,-154 545,-160 539,-166 533,-166"/>
<text text-anchor="middle" x="432" y="-145.6" font-family="Helvetica,sans-Serif" font-size="13.00" fill="#1f2933">main</text>
<text text-anchor="middle" x="432" y="-131.6" font-family="Helvetica,sans-Serif" font-size="13.00" fill="#1f2933">no direct commits or pushes</text>
</g>
<!-- approve&#45;&gt;main -->
<g id="edge9" class="edge">
<title>approve&#45;&gt;main</title>
<path fill="none" stroke="#52606d" stroke-width="1.1" d="M432,-221.85C432,-207.77 432,-189.6 432,-174.25"/>
<polygon fill="#52606d" stroke="#52606d" stroke-width="1.1" points="434.8,-174.05 432,-166.05 429.2,-174.05 434.8,-174.05"/>
<text text-anchor="middle" x="452" y="-191.2" font-family="Helvetica,sans-Serif" font-size="11.00" fill="#3e4c59"> merge</text>
</g>
<!-- ci -->
<g id="node6" class="node">
<title>ci</title>
<path fill="#dcfce7" stroke="#15803d" stroke-width="1.2" d="M559,-481C559,-481 305,-481 305,-481 299,-481 293,-475 293,-469 293,-469 293,-431 293,-431 293,-425 299,-419 305,-419 305,-419 559,-419 559,-419 565,-419 571,-425 571,-431 571,-431 571,-469 571,-469 571,-475 565,-481 559,-481"/>
<text text-anchor="middle" x="432" y="-460.6" font-family="Helvetica,sans-Serif" font-size="13.00" fill="#1f2933">CI in the cloud</text>
<text text-anchor="middle" x="432" y="-446.6" font-family="Helvetica,sans-Serif" font-size="13.00" fill="#1f2933">tests, lint, types, red&#45;first, mutation,</text>
<text text-anchor="middle" x="432" y="-432.6" font-family="Helvetica,sans-Serif" font-size="13.00" fill="#1f2933">task&#45;file, delta and docs checks</text>
</g>
<!-- a1&#45;&gt;ci -->
<g id="edge4" class="edge">
<title>a1&#45;&gt;ci</title>
<path fill="none" stroke="#52606d" stroke-width="1.1" d="M220.4,-538.92C260.62,-522.21 310.75,-501.38 352.11,-484.19"/>
<polygon fill="#52606d" stroke="#52606d" stroke-width="1.1" points="353.42,-486.68 359.73,-481.03 351.27,-481.51 353.42,-486.68"/>
<text text-anchor="middle" x="347.5" y="-506.2" font-family="Helvetica,sans-Serif" font-size="11.00" fill="#3e4c59"> push task branch</text>
</g>
<!-- a2&#45;&gt;ci -->
<g id="edge5" class="edge">
<title>a2&#45;&gt;ci</title>
<path fill="none" stroke="#52606d" stroke-width="1.1" d="M432,-538.92C432,-523.8 432,-505.32 432,-489.21"/>
<polygon fill="#52606d" stroke="#52606d" stroke-width="1.1" points="434.8,-489.03 432,-481.03 429.2,-489.03 434.8,-489.03"/>
</g>
<!-- a3&#45;&gt;ci -->
<g id="edge6" class="edge">
<title>a3&#45;&gt;ci</title>
<path fill="none" stroke="#52606d" stroke-width="1.1" d="M643.6,-538.92C603.38,-522.21 553.25,-501.38 511.89,-484.19"/>
<polygon fill="#52606d" stroke="#52606d" stroke-width="1.1" points="512.73,-481.51 504.27,-481.03 510.58,-486.68 512.73,-481.51"/>
</g>
<!-- pr -->
<g id="node8" class="node">
<title>pr</title>
<path fill="#f5f7fa" stroke="#52606d" stroke-width="1.2" d="M501,-363C501,-363 363,-363 363,-363 357,-363 351,-357 351,-351 351,-351 351,-327 351,-327 351,-321 357,-315 363,-315 363,-315 501,-315 501,-315 507,-315 513,-321 513,-327 513,-327 513,-351 513,-351 513,-357 507,-363 501,-363"/>
<text text-anchor="middle" x="432" y="-342.6" font-family="Helvetica,sans-Serif" font-size="13.00" fill="#1f2933">Pull request</text>
<text text-anchor="middle" x="432" y="-328.6" font-family="Helvetica,sans-Serif" font-size="13.00" fill="#1f2933">with the CI run link</text>
</g>
<!-- ci&#45;&gt;pr -->
<g id="edge7" class="edge">
<title>ci&#45;&gt;pr</title>
<path fill="none" stroke="#52606d" stroke-width="1.1" d="M432,-418.93C432,-404.04 432,-386.09 432,-371.07"/>
<polygon fill="#52606d" stroke="#52606d" stroke-width="1.1" points="434.8,-371.06 432,-363.06 429.2,-371.06 434.8,-371.06"/>
<text text-anchor="middle" x="467.5" y="-388.2" font-family="Helvetica,sans-Serif" font-size="11.00" fill="#3e4c59"> checks pass</text>
</g>
<!-- views -->
<g id="node7" class="node">
<title>views</title>
<path fill="#dcfce7" stroke="#15803d" stroke-width="1.2" d="M566.5,-62C566.5,-62 297.5,-62 297.5,-62 291.5,-62 285.5,-56 285.5,-50 285.5,-50 285.5,-12 285.5,-12 285.5,-6 291.5,0 297.5,0 297.5,0 566.5,0 566.5,0 572.5,0 578.5,-6 578.5,-12 578.5,-12 578.5,-50 578.5,-50 578.5,-56 572.5,-62 566.5,-62"/>
<text text-anchor="middle" x="432" y="-41.6" font-family="Helvetica,sans-Serif" font-size="13.00" fill="#1f2933">Derived views, never committed</text>
<text text-anchor="middle" x="432" y="-27.6" font-family="Helvetica,sans-Serif" font-size="13.00" fill="#1f2933">scripts/build_state.py from origin/main</text>
<text text-anchor="middle" x="432" y="-13.6" font-family="Helvetica,sans-Serif" font-size="13.00" fill="#1f2933">LASTCONTEXT.md, dashboard, metrics</text>
</g>
<!-- views&#45;&gt;human -->
<g id="edge11" class="edge">
<title>views&#45;&gt;human</title>
<path fill="none" stroke="#52606d" stroke-width="1.1" stroke-dasharray="5,2" d="M501.47,-62.06C513.19,-68.51 524.83,-75.87 535,-84 550.29,-96.23 550.92,-102.59 563,-118 757.4,-366 1024.89,-467 865,-651 825.79,-696.12 670.98,-708.81 557.63,-711.9"/>
<polygon fill="#52606d" stroke="#52606d" stroke-width="1.1" points="557.47,-709.1 549.54,-712.1 557.61,-714.7 557.47,-709.1"/>
<text text-anchor="middle" x="832" y="-336.2" font-family="Helvetica,sans-Serif" font-size="11.00" fill="#3e4c59"> dashboard</text>
</g>
<!-- pr&#45;&gt;approve -->
<g id="edge8" class="edge">
<title>pr&#45;&gt;approve</title>
<path fill="none" stroke="#52606d" stroke-width="1.1" d="M432,-314.57C432,-303.55 432,-290.25 432,-278.38"/>
<polygon fill="#52606d" stroke="#52606d" stroke-width="1.1" points="434.8,-278.04 432,-270.04 429.2,-278.04 434.8,-278.04"/>
</g>
<!-- main&#45;&gt;views -->
<g id="edge10" class="edge">
<title>main&#45;&gt;views</title>
<path fill="none" stroke="#52606d" stroke-width="1.1" d="M432,-117.88C432,-104.05 432,-86.12 432,-70.22"/>
<polygon fill="#52606d" stroke="#52606d" stroke-width="1.1" points="434.8,-70.13 432,-62.13 429.2,-70.13 434.8,-70.13"/>
<text text-anchor="middle" x="479" y="-87.2" font-family="Helvetica,sans-Serif" font-size="11.00" fill="#3e4c59"> read on demand</text>
</g>
</g>
</svg>
