<?xml version="1.0" encoding="UTF-8" standalone="no"?>
<!DOCTYPE svg PUBLIC "-//W3C//DTD SVG 1.1//EN"
 "http://www.w3.org/Graphics/SVG/1.1/DTD/svg11.dtd">
<!-- Generated by graphviz version 16.1.0 (20260904.0139)
 -->
<!-- Title: task_lifecycle Pages: 1 -->
<svg width="509pt" height="1032pt"
 viewBox="0.00 0.00 509.00 1032.00" xmlns="http://www.w3.org/2000/svg" xmlns:xlink="http://www.w3.org/1999/xlink">
<g id="graph0" class="graph" transform="scale(1 1) rotate(0) translate(21.6 1010.8)">
<title>task_lifecycle</title>
<polygon fill="white" stroke="none" points="-21.6,21.6 -21.6,-1010.8 487.04,-1010.8 487.04,21.6 -21.6,21.6"/>
<!-- s1 -->
<g id="node1" class="node">
<title>s1</title>
<path fill="#e1effe" stroke="#1c64f2" stroke-width="1.2" d="M255.72,-989.2C255.72,-989.2 89.82,-989.2 89.82,-989.2 83.82,-989.2 77.82,-983.2 77.82,-977.2 77.82,-977.2 77.82,-965.2 77.82,-965.2 77.82,-959.2 83.82,-953.2 89.82,-953.2 89.82,-953.2 255.72,-953.2 255.72,-953.2 261.72,-953.2 267.72,-959.2 267.72,-965.2 267.72,-965.2 267.72,-977.2 267.72,-977.2 267.72,-983.2 261.72,-989.2 255.72,-989.2"/>
<text xml:space="preserve" text-anchor="middle" x="172.77" y="-967.3" font-family="Helvetica,sans-Serif" font-size="13.00" fill="#1f2933">1. Ask the human for ROLE:</text>
</g>
<!-- s2 -->
<g id="node2" class="node">
<title>s2</title>
<path fill="#e1effe" stroke="#1c64f2" stroke-width="1.2" d="M333.54,-922.2C333.54,-922.2 12,-922.2 12,-922.2 6,-922.2 0,-916.2 0,-910.2 0,-910.2 0,-885.72 0,-885.72 0,-879.72 6,-873.72 12,-873.72 12,-873.72 333.54,-873.72 333.54,-873.72 339.54,-873.72 345.54,-879.72 345.54,-885.72 345.54,-885.72 345.54,-910.2 345.54,-910.2 345.54,-916.2 339.54,-922.2 333.54,-922.2"/>
<text xml:space="preserve" text-anchor="middle" x="172.77" y="-901.86" font-family="Helvetica,sans-Serif" font-size="13.00" fill="#1f2933">2. Read PENDING.md and the role&#39;s LASTCONTEXT</text>
<text xml:space="preserve" text-anchor="middle" x="172.77" y="-886.26" font-family="Helvetica,sans-Serif" font-size="13.00" fill="#1f2933">(global LASTCONTEXT if the role has none)</text>
</g>
<!-- s1&#45;&gt;s2 -->
<g id="edge1" class="edge">
<title>s1&#45;&gt;s2</title>
<path fill="none" stroke="#52606d" stroke-width="1.1" d="M172.77,-952.95C172.77,-946.73 172.77,-939.47 172.77,-932.33"/>
<polygon fill="#52606d" stroke="#52606d" stroke-width="1.1" points="175.57,-932.44 172.77,-924.44 169.97,-932.44 175.57,-932.44"/>
</g>
<!-- s3 -->
<g id="node3" class="node">
<title>s3</title>
<path fill="#e1effe" stroke="#1c64f2" stroke-width="1.2" d="M285.35,-842.72C285.35,-842.72 60.19,-842.72 60.19,-842.72 54.19,-842.72 48.19,-836.72 48.19,-830.72 48.19,-830.72 48.19,-806.24 48.19,-806.24 48.19,-800.24 54.19,-794.24 60.19,-794.24 60.19,-794.24 285.35,-794.24 285.35,-794.24 291.35,-794.24 297.35,-800.24 297.35,-806.24 297.35,-806.24 297.35,-830.72 297.35,-830.72 297.35,-836.72 291.35,-842.72 285.35,-842.72"/>
<text xml:space="preserve" text-anchor="middle" x="172.77" y="-822.38" font-family="Helvetica,sans-Serif" font-size="13.00" fill="#1f2933">3. Step 0: git status and git branch</text>
<text xml:space="preserve" text-anchor="middle" x="172.77" y="-806.78" font-family="Helvetica,sans-Serif" font-size="13.00" fill="#1f2933">Other agents are working in this repo</text>
</g>
<!-- s2&#45;&gt;s3 -->
<g id="edge2" class="edge">
<title>s2&#45;&gt;s3</title>
<path fill="none" stroke="#52606d" stroke-width="1.1" d="M172.77,-873.29C172.77,-866.74 172.77,-859.52 172.77,-852.54"/>
<polygon fill="#52606d" stroke="#52606d" stroke-width="1.1" points="175.57,-852.93 172.77,-844.93 169.97,-852.93 175.57,-852.93"/>
</g>
<!-- s4 -->
<g id="node4" class="node">
<title>s4</title>
<path fill="#e1effe" stroke="#1c64f2" stroke-width="1.2" d="M331.61,-763.24C331.61,-763.24 13.93,-763.24 13.93,-763.24 7.93,-763.24 1.93,-757.24 1.93,-751.24 1.93,-751.24 1.93,-726.76 1.93,-726.76 1.93,-720.76 7.93,-714.76 13.93,-714.76 13.93,-714.76 331.61,-714.76 331.61,-714.76 337.61,-714.76 343.61,-720.76 343.61,-726.76 343.61,-726.76 343.61,-751.24 343.61,-751.24 343.61,-757.24 337.61,-763.24 331.61,-763.24"/>
<text xml:space="preserve" text-anchor="middle" x="172.77" y="-742.9" font-family="Helvetica,sans-Serif" font-size="13.00" fill="#1f2933">4. Create a new isolated branch named after the task</text>
<text xml:space="preserve" text-anchor="middle" x="172.77" y="-727.3" font-family="Helvetica,sans-Serif" font-size="13.00" fill="#1f2933">feat/, fix/ or chore/ + clear description</text>
</g>
<!-- s3&#45;&gt;s4 -->
<g id="edge3" class="edge">
<title>s3&#45;&gt;s4</title>
<path fill="none" stroke="#52606d" stroke-width="1.1" d="M172.77,-793.81C172.77,-787.26 172.77,-780.04 172.77,-773.06"/>
<polygon fill="#52606d" stroke="#52606d" stroke-width="1.1" points="175.57,-773.45 172.77,-765.45 169.97,-773.45 175.57,-773.45"/>
</g>
<!-- s5 -->
<g id="node5" class="node">
<title>s5</title>
<path fill="#e1effe" stroke="#1c64f2" stroke-width="1.2" d="M308.47,-683.76C308.47,-683.76 37.07,-683.76 37.07,-683.76 31.07,-683.76 25.07,-677.76 25.07,-671.76 25.07,-671.76 25.07,-647.28 25.07,-647.28 25.07,-641.28 31.07,-635.28 37.07,-635.28 37.07,-635.28 308.47,-635.28 308.47,-635.28 314.47,-635.28 320.47,-641.28 320.47,-647.28 320.47,-647.28 320.47,-671.76 320.47,-671.76 320.47,-677.76 314.47,-683.76 308.47,-683.76"/>
<text xml:space="preserve" text-anchor="middle" x="172.77" y="-663.42" font-family="Helvetica,sans-Serif" font-size="13.00" fill="#1f2933">5. Strict TDD</text>
<text xml:space="preserve" text-anchor="middle" x="172.77" y="-647.82" font-family="Helvetica,sans-Serif" font-size="13.00" fill="#1f2933">failing test, then minimum code, then refactor</text>
</g>
<!-- s4&#45;&gt;s5 -->
<g id="edge4" class="edge">
<title>s4&#45;&gt;s5</title>
<path fill="none" stroke="#52606d" stroke-width="1.1" d="M172.77,-714.33C172.77,-707.78 172.77,-700.56 172.77,-693.58"/>
<polygon fill="#52606d" stroke="#52606d" stroke-width="1.1" points="175.57,-693.97 172.77,-685.97 169.97,-693.97 175.57,-693.97"/>
</g>
<!-- s6 -->
<g id="node6" class="node">
<title>s6</title>
<path fill="#e1effe" stroke="#1c64f2" stroke-width="1.2" d="M316.77,-604.28C316.77,-604.28 28.76,-604.28 28.76,-604.28 22.76,-604.28 16.76,-598.28 16.76,-592.28 16.76,-592.28 16.76,-567.8 16.76,-567.8 16.76,-561.8 22.76,-555.8 28.76,-555.8 28.76,-555.8 316.77,-555.8 316.77,-555.8 322.77,-555.8 328.77,-561.8 328.77,-567.8 328.77,-567.8 328.77,-592.28 328.77,-592.28 328.77,-598.28 322.77,-604.28 316.77,-604.28"/>
<text xml:space="preserve" text-anchor="middle" x="172.77" y="-583.94" font-family="Helvetica,sans-Serif" font-size="13.00" fill="#1f2933">6. One feature = one atomic commit</text>
<text xml:space="preserve" text-anchor="middle" x="172.77" y="-568.34" font-family="Helvetica,sans-Serif" font-size="13.00" fill="#1f2933">Conventional Commits: type(scope): description</text>
</g>
<!-- s5&#45;&gt;s6 -->
<g id="edge5" class="edge">
<title>s5&#45;&gt;s6</title>
<path fill="none" stroke="#52606d" stroke-width="1.1" d="M172.77,-634.85C172.77,-628.3 172.77,-621.08 172.77,-614.1"/>
<polygon fill="#52606d" stroke="#52606d" stroke-width="1.1" points="175.57,-614.49 172.77,-606.49 169.97,-614.49 175.57,-614.49"/>
</g>
<!-- s7 -->
<g id="node7" class="node">
<title>s7</title>
<path fill="#dcfce7" stroke="#15803d" stroke-width="1.2" d="M290.77,-512.6C290.77,-512.6 54.77,-512.6 54.77,-512.6 48.77,-512.6 42.77,-506.6 42.77,-500.6 42.77,-500.6 42.77,-476.12 42.77,-476.12 42.77,-470.12 48.77,-464.12 54.77,-464.12 54.77,-464.12 290.77,-464.12 290.77,-464.12 296.77,-464.12 302.77,-470.12 302.77,-476.12 302.77,-476.12 302.77,-500.6 302.77,-500.6 302.77,-506.6 296.77,-512.6 290.77,-512.6"/>
<text xml:space="preserve" text-anchor="middle" x="172.77" y="-492.26" font-family="Helvetica,sans-Serif" font-size="13.00" fill="#1f2933">7. Push. Tests, lint, types and mutation</text>
<text xml:space="preserve" text-anchor="middle" x="172.77" y="-476.66" font-family="Helvetica,sans-Serif" font-size="13.00" fill="#1f2933">run in CI, never on the local machine</text>
</g>
<!-- s6&#45;&gt;s7 -->
<g id="edge6" class="edge">
<title>s6&#45;&gt;s7</title>
<path fill="none" stroke="#52606d" stroke-width="1.1" d="M172.77,-555.48C172.77,-545.46 172.77,-533.61 172.77,-522.72"/>
<polygon fill="#52606d" stroke="#52606d" stroke-width="1.1" points="175.57,-522.74 172.77,-514.74 169.97,-522.74 175.57,-522.74"/>
</g>
<!-- d1 -->
<g id="node8" class="node">
<title>d1</title>
<polygon fill="#dcfce7" stroke="#15803d" stroke-width="1.2" points="172.77,-433.12 114.02,-415.12 172.77,-397.12 231.51,-415.12 172.77,-433.12"/>
<text xml:space="preserve" text-anchor="middle" x="172.77" y="-411.22" font-family="Helvetica,sans-Serif" font-size="13.00" fill="#1f2933">CI green?</text>
</g>
<!-- s7&#45;&gt;d1 -->
<g id="edge7" class="edge">
<title>s7&#45;&gt;d1</title>
<path fill="none" stroke="#52606d" stroke-width="1.1" d="M172.77,-463.64C172.77,-457 172.77,-449.74 172.77,-442.94"/>
<polygon fill="#52606d" stroke="#52606d" stroke-width="1.1" points="175.57,-443.1 172.77,-435.1 169.97,-443.1 175.57,-443.1"/>
</g>
<!-- d1&#45;&gt;s5 -->
<g id="edge8" class="edge">
<title>d1&#45;&gt;s5</title>
<path fill="none" stroke="#b91c1c" stroke-width="1.1" d="M218.5,-419.71C251.23,-424.67 294.06,-436.4 320.77,-464.12 325.87,-469.42 369.99,-572.72 346.77,-604.28 339.07,-614.74 329.37,-623.24 318.51,-630.14"/>
<polygon fill="#b91c1c" stroke="#b91c1c" stroke-width="1.1" points="317.33,-627.59 311.84,-634.04 320.16,-632.42 317.33,-627.59"/>
<text xml:space="preserve" text-anchor="middle" x="407.04" y="-530.9" font-family="Helvetica,sans-Serif" font-size="11.00" fill="#b91c1c"> no: fix, then push again</text>
</g>
<!-- s8 -->
<g id="node9" class="node">
<title>s8</title>
<path fill="#e1effe" stroke="#1c64f2" stroke-width="1.2" d="M314.25,-353.92C314.25,-353.92 31.29,-353.92 31.29,-353.92 25.29,-353.92 19.29,-347.92 19.29,-341.92 19.29,-341.92 19.29,-317.44 19.29,-317.44 19.29,-311.44 25.29,-305.44 31.29,-305.44 31.29,-305.44 314.25,-305.44 314.25,-305.44 320.25,-305.44 326.25,-311.44 326.25,-317.44 326.25,-317.44 326.25,-341.92 326.25,-341.92 326.25,-347.92 320.25,-353.92 314.25,-353.92"/>
<text xml:space="preserve" text-anchor="middle" x="172.77" y="-333.58" font-family="Helvetica,sans-Serif" font-size="13.00" fill="#1f2933">8. Write the task delta and task file</text>
<text xml:space="preserve" text-anchor="middle" x="172.77" y="-317.98" font-family="Helvetica,sans-Serif" font-size="13.00" fill="#1f2933">Separate docs(scope) commit, documents only</text>
</g>
<!-- d1&#45;&gt;s8 -->
<g id="edge9" class="edge">
<title>d1&#45;&gt;s8</title>
<path fill="none" stroke="#52606d" stroke-width="1.1" d="M172.77,-396.83C172.77,-387.31 172.77,-375.16 172.77,-363.88"/>
<polygon fill="#52606d" stroke="#52606d" stroke-width="1.1" points="175.57,-363.94 172.77,-355.94 169.97,-363.94 175.57,-363.94"/>
<text xml:space="preserve" text-anchor="middle" x="182.86" y="-372.22" font-family="Helvetica,sans-Serif" font-size="11.00" fill="#3e4c59"> yes</text>
</g>
<!-- s9 -->
<g id="node10" class="node">
<title>s9</title>
<path fill="#e1effe" stroke="#1c64f2" stroke-width="1.2" d="M286.8,-274.44C286.8,-274.44 58.73,-274.44 58.73,-274.44 52.73,-274.44 46.73,-268.44 46.73,-262.44 46.73,-262.44 46.73,-237.96 46.73,-237.96 46.73,-231.96 52.73,-225.96 58.73,-225.96 58.73,-225.96 286.8,-225.96 286.8,-225.96 292.8,-225.96 298.8,-231.96 298.8,-237.96 298.8,-237.96 298.8,-262.44 298.8,-262.44 298.8,-268.44 292.8,-274.44 286.8,-274.44"/>
<text xml:space="preserve" text-anchor="middle" x="172.77" y="-254.1" font-family="Helvetica,sans-Serif" font-size="13.00" fill="#1f2933">9. Ask whether to create the PR</text>
<text xml:space="preserve" text-anchor="middle" x="172.77" y="-238.5" font-family="Helvetica,sans-Serif" font-size="13.00" fill="#1f2933">unless the human already asked for it</text>
</g>
<!-- s8&#45;&gt;s9 -->
<g id="edge10" class="edge">
<title>s8&#45;&gt;s9</title>
<path fill="none" stroke="#52606d" stroke-width="1.1" d="M172.77,-305.01C172.77,-298.46 172.77,-291.24 172.77,-284.26"/>
<polygon fill="#52606d" stroke="#52606d" stroke-width="1.1" points="175.57,-284.65 172.77,-276.65 169.97,-284.65 175.57,-284.65"/>
</g>
<!-- s10 -->
<g id="node11" class="node">
<title>s10</title>
<path fill="#e1effe" stroke="#1c64f2" stroke-width="1.2" d="M258.97,-194.96C258.97,-194.96 86.57,-194.96 86.57,-194.96 80.57,-194.96 74.57,-188.96 74.57,-182.96 74.57,-182.96 74.57,-158.48 74.57,-158.48 74.57,-152.48 80.57,-146.48 86.57,-146.48 86.57,-146.48 258.97,-146.48 258.97,-146.48 264.97,-146.48 270.97,-152.48 270.97,-158.48 270.97,-158.48 270.97,-182.96 270.97,-182.96 270.97,-188.96 264.97,-194.96 258.97,-194.96"/>
<text xml:space="preserve" text-anchor="middle" x="172.77" y="-174.62" font-family="Helvetica,sans-Serif" font-size="13.00" fill="#1f2933">10. PR with title, description</text>
<text xml:space="preserve" text-anchor="middle" x="172.77" y="-159.02" font-family="Helvetica,sans-Serif" font-size="13.00" fill="#1f2933">and the CI run link</text>
</g>
<!-- s9&#45;&gt;s10 -->
<g id="edge11" class="edge">
<title>s9&#45;&gt;s10</title>
<path fill="none" stroke="#52606d" stroke-width="1.1" d="M172.77,-225.53C172.77,-218.98 172.77,-211.76 172.77,-204.78"/>
<polygon fill="#52606d" stroke="#52606d" stroke-width="1.1" points="175.57,-205.17 172.77,-197.17 169.97,-205.17 175.57,-205.17"/>
</g>
<!-- s11 -->
<g id="node12" class="node">
<title>s11</title>
<path fill="#fef3c7" stroke="#b45309" stroke-width="1.2" d="M302.69,-115.48C302.69,-115.48 42.85,-115.48 42.85,-115.48 36.85,-115.48 30.85,-109.48 30.85,-103.48 30.85,-103.48 30.85,-79 30.85,-79 30.85,-73 36.85,-67 42.85,-67 42.85,-67 302.69,-67 302.69,-67 308.69,-67 314.69,-73 314.69,-79 314.69,-79 314.69,-103.48 314.69,-103.48 314.69,-109.48 308.69,-115.48 302.69,-115.48"/>
<text xml:space="preserve" text-anchor="middle" x="172.77" y="-95.14" font-family="Helvetica,sans-Serif" font-size="13.00" fill="#1f2933">11. Human approves the PR manually</text>
<text xml:space="preserve" text-anchor="middle" x="172.77" y="-79.54" font-family="Helvetica,sans-Serif" font-size="13.00" fill="#1f2933">Merge only with an explicit human directive</text>
</g>
<!-- s10&#45;&gt;s11 -->
<g id="edge12" class="edge">
<title>s10&#45;&gt;s11</title>
<path fill="none" stroke="#52606d" stroke-width="1.1" d="M172.77,-146.05C172.77,-139.5 172.77,-132.28 172.77,-125.3"/>
<polygon fill="#52606d" stroke="#52606d" stroke-width="1.1" points="175.57,-125.69 172.77,-117.69 169.97,-125.69 175.57,-125.69"/>
</g>
<!-- s12 -->
<g id="node13" class="node">
<title>s12</title>
<path fill="#e1effe" stroke="#1c64f2" stroke-width="1.2" d="M286.81,-36C286.81,-36 58.73,-36 58.73,-36 52.73,-36 46.73,-30 46.73,-24 46.73,-24 46.73,-12 46.73,-12 46.73,-6 52.73,0 58.73,0 58.73,0 286.81,0 286.81,0 292.81,0 298.81,-6 298.81,-12 298.81,-12 298.81,-24 298.81,-24 298.81,-30 292.81,-36 286.81,-36"/>
<text xml:space="preserve" text-anchor="middle" x="172.77" y="-14.1" font-family="Helvetica,sans-Serif" font-size="13.00" fill="#1f2933">12. Delete the branch after the merge</text>
</g>
<!-- s11&#45;&gt;s12 -->
<g id="edge13" class="edge">
<title>s11&#45;&gt;s12</title>
<path fill="none" stroke="#52606d" stroke-width="1.1" d="M172.77,-66.52C172.77,-59.88 172.77,-52.62 172.77,-45.82"/>
<polygon fill="#52606d" stroke="#52606d" stroke-width="1.1" points="175.57,-45.98 172.77,-37.98 169.97,-45.98 175.57,-45.98"/>
</g>
</g>
</svg>
