<?xml version="1.0" encoding="UTF-8" standalone="no"?>
<!DOCTYPE svg PUBLIC "-//W3C//DTD SVG 1.1//EN"
 "http://www.w3.org/Graphics/SVG/1.1/DTD/svg11.dtd">
<!-- Generated by graphviz version 2.43.0 (0)
 -->
<!-- Title: state_and_context Pages: 1 -->
<svg width="436pt" height="700pt"
 viewBox="0.00 0.00 436.20 700.20" xmlns="http://www.w3.org/2000/svg" xmlns:xlink="http://www.w3.org/1999/xlink">
<g id="graph0" class="graph" transform="scale(1 1) rotate(0) translate(21.6 678.6)">
<title>state_and_context</title>
<polygon fill="white" stroke="transparent" points="-21.6,21.6 -21.6,-678.6 414.6,-678.6 414.6,21.6 -21.6,21.6"/>
<!-- agent -->
<g id="node1" class="node">
<title>agent</title>
<path fill="#e1effe" stroke="#1c64f2" stroke-width="1.2" d="M305,-657C305,-657 88,-657 88,-657 82,-657 76,-651 76,-645 76,-645 76,-633 76,-633 76,-627 82,-621 88,-621 88,-621 305,-621 305,-621 311,-621 317,-627 317,-633 317,-633 317,-645 317,-645 317,-651 311,-657 305,-657"/>
<text text-anchor="middle" x="196.5" y="-635.6" font-family="Helvetica,sans-Serif" font-size="13.00" fill="#1f2933">Agent (any number in parallel)</text>
</g>
<!-- own -->
<g id="node2" class="node">
<title>own</title>
<path fill="#ede9fe" stroke="#6d28d9" stroke-width="1.2" d="M349.5,-588C349.5,-588 43.5,-588 43.5,-588 37.5,-588 31.5,-582 31.5,-576 31.5,-576 31.5,-540 31.5,-540 31.5,-534 37.5,-528 43.5,-528 43.5,-528 349.5,-528 349.5,-528 355.5,-528 361.5,-534 361.5,-540 361.5,-540 361.5,-576 361.5,-576 361.5,-582 355.5,-588 349.5,-588"/>
<text text-anchor="middle" x="196.5" y="-568.6" font-family="Helvetica,sans-Serif" font-size="13.00" fill="#1f2933">The agent writes only its own files</text>
<text text-anchor="middle" x="196.5" y="-554.6" font-family="Helvetica,sans-Serif" font-size="13.00" fill="#1f2933">context/tasks/task_NNN_context.json (delta)</text>
<text text-anchor="middle" x="196.5" y="-540.6" font-family="Helvetica,sans-Serif" font-size="13.00" fill="#1f2933">state/tasks/task_NNN.json (task file)</text>
</g>
<!-- agent&#45;&gt;own -->
<g id="edge1" class="edge">
<title>agent&#45;&gt;own</title>
<path fill="none" stroke="#52606d" stroke-width="1.1" d="M196.5,-620.86C196.5,-613.64 196.5,-604.93 196.5,-596.35"/>
<polygon fill="#52606d" stroke="#52606d" stroke-width="1.1" points="199.3,-596.23 196.5,-588.23 193.7,-596.23 199.3,-596.23"/>
</g>
<!-- pr -->
<g id="node3" class="node">
<title>pr</title>
<path fill="#f5f7fa" stroke="#52606d" stroke-width="1.2" d="M345,-495C345,-495 48,-495 48,-495 42,-495 36,-489 36,-483 36,-483 36,-461 36,-461 36,-455 42,-449 48,-449 48,-449 345,-449 345,-449 351,-449 357,-455 357,-461 357,-461 357,-483 357,-483 357,-489 351,-495 345,-495"/>
<text text-anchor="middle" x="196.5" y="-475.6" font-family="Helvetica,sans-Serif" font-size="13.00" fill="#1f2933">Task PR</text>
<text text-anchor="middle" x="196.5" y="-461.6" font-family="Helvetica,sans-Serif" font-size="13.00" fill="#1f2933">the delta and task file travel with the code</text>
</g>
<!-- own&#45;&gt;pr -->
<g id="edge2" class="edge">
<title>own&#45;&gt;pr</title>
<path fill="none" stroke="#52606d" stroke-width="1.1" d="M196.5,-527.62C196.5,-519.69 196.5,-511.09 196.5,-503.11"/>
<polygon fill="#52606d" stroke="#52606d" stroke-width="1.1" points="199.3,-503.08 196.5,-495.08 193.7,-503.08 199.3,-503.08"/>
</g>
<!-- check -->
<g id="node4" class="node">
<title>check</title>
<path fill="#dcfce7" stroke="#15803d" stroke-width="1.2" d="M366.5,-416C366.5,-416 26.5,-416 26.5,-416 20.5,-416 14.5,-410 14.5,-404 14.5,-404 14.5,-368 14.5,-368 14.5,-362 20.5,-356 26.5,-356 26.5,-356 366.5,-356 366.5,-356 372.5,-356 378.5,-362 378.5,-368 378.5,-368 378.5,-404 378.5,-404 378.5,-410 372.5,-416 366.5,-416"/>
<text text-anchor="middle" x="196.5" y="-396.6" font-family="Helvetica,sans-Serif" font-size="13.00" fill="#1f2933">CI: check_task_files.py and check_task_delta.py</text>
<text text-anchor="middle" x="196.5" y="-382.6" font-family="Helvetica,sans-Serif" font-size="13.00" fill="#1f2933">lifecycle, no declared measurements, unique ids,</text>
<text text-anchor="middle" x="196.5" y="-368.6" font-family="Helvetica,sans-Serif" font-size="13.00" fill="#1f2933">files_touched equal to the changed code files</text>
</g>
<!-- pr&#45;&gt;check -->
<g id="edge3" class="edge">
<title>pr&#45;&gt;check</title>
<path fill="none" stroke="#52606d" stroke-width="1.1" d="M196.5,-448.93C196.5,-441.42 196.5,-432.8 196.5,-424.43"/>
<polygon fill="#52606d" stroke="#52606d" stroke-width="1.1" points="199.3,-424.19 196.5,-416.19 193.7,-424.19 199.3,-424.19"/>
</g>
<!-- human -->
<g id="node5" class="node">
<title>human</title>
<path fill="#fef3c7" stroke="#b45309" stroke-width="1.2" d="M324.5,-312C324.5,-312 68.5,-312 68.5,-312 62.5,-312 56.5,-306 56.5,-300 56.5,-300 56.5,-288 56.5,-288 56.5,-282 62.5,-276 68.5,-276 68.5,-276 324.5,-276 324.5,-276 330.5,-276 336.5,-282 336.5,-288 336.5,-288 336.5,-300 336.5,-300 336.5,-306 330.5,-312 324.5,-312"/>
<text text-anchor="middle" x="196.5" y="-290.6" font-family="Helvetica,sans-Serif" font-size="13.00" fill="#1f2933">Human approves and merges the PR</text>
</g>
<!-- check&#45;&gt;human -->
<g id="edge4" class="edge">
<title>check&#45;&gt;human</title>
<path fill="none" stroke="#52606d" stroke-width="1.1" d="M196.5,-355.53C196.5,-344.2 196.5,-331.38 196.5,-320.46"/>
<polygon fill="#52606d" stroke="#52606d" stroke-width="1.1" points="199.3,-320.18 196.5,-312.18 193.7,-320.18 199.3,-320.18"/>
<text text-anchor="middle" x="232" y="-331.2" font-family="Helvetica,sans-Serif" font-size="11.00" fill="#3e4c59"> checks pass</text>
</g>
<!-- src -->
<g id="node6" class="node">
<title>src</title>
<path fill="#ede9fe" stroke="#6d28d9" stroke-width="1.2" d="M330.5,-232C330.5,-232 62.5,-232 62.5,-232 56.5,-232 50.5,-226 50.5,-220 50.5,-220 50.5,-184 50.5,-184 50.5,-178 56.5,-172 62.5,-172 62.5,-172 330.5,-172 330.5,-172 336.5,-172 342.5,-178 342.5,-184 342.5,-184 342.5,-220 342.5,-220 342.5,-226 336.5,-232 330.5,-232"/>
<text text-anchor="middle" x="196.5" y="-212.6" font-family="Helvetica,sans-Serif" font-size="13.00" fill="#1f2933">Sources on main (versioned)</text>
<text text-anchor="middle" x="196.5" y="-198.6" font-family="Helvetica,sans-Serif" font-size="13.00" fill="#1f2933">state/tasks/*.json, context/tasks/*.json</text>
<text text-anchor="middle" x="196.5" y="-184.6" font-family="Helvetica,sans-Serif" font-size="13.00" fill="#1f2933">docs/adr/*.md, docs/gotchas/*.md</text>
</g>
<!-- human&#45;&gt;src -->
<g id="edge5" class="edge">
<title>human&#45;&gt;src</title>
<path fill="none" stroke="#52606d" stroke-width="1.1" d="M196.5,-275.65C196.5,-265.69 196.5,-252.78 196.5,-240.61"/>
<polygon fill="#52606d" stroke="#52606d" stroke-width="1.1" points="199.3,-240.34 196.5,-232.34 193.7,-240.34 199.3,-240.34"/>
<text text-anchor="middle" x="219.5" y="-251.2" font-family="Helvetica,sans-Serif" font-size="11.00" fill="#3e4c59"> merged</text>
</g>
<!-- build -->
<g id="node7" class="node">
<title>build</title>
<path fill="#dcfce7" stroke="#15803d" stroke-width="1.2" d="M366.5,-139C366.5,-139 26.5,-139 26.5,-139 20.5,-139 14.5,-133 14.5,-127 14.5,-127 14.5,-105 14.5,-105 14.5,-99 20.5,-93 26.5,-93 26.5,-93 366.5,-93 366.5,-93 372.5,-93 378.5,-99 378.5,-105 378.5,-105 378.5,-127 378.5,-127 378.5,-133 372.5,-139 366.5,-139"/>
<text text-anchor="middle" x="196.5" y="-119.6" font-family="Helvetica,sans-Serif" font-size="13.00" fill="#1f2933">scripts/build_state.py (on demand, deterministic)</text>
<text text-anchor="middle" x="196.5" y="-105.6" font-family="Helvetica,sans-Serif" font-size="13.00" fill="#1f2933">+ facts measured from git and the CI API</text>
</g>
<!-- src&#45;&gt;build -->
<g id="edge6" class="edge">
<title>src&#45;&gt;build</title>
<path fill="none" stroke="#52606d" stroke-width="1.1" d="M196.5,-171.62C196.5,-163.69 196.5,-155.09 196.5,-147.11"/>
<polygon fill="#52606d" stroke="#52606d" stroke-width="1.1" points="199.3,-147.08 196.5,-139.08 193.7,-147.08 199.3,-147.08"/>
</g>
<!-- views -->
<g id="node8" class="node">
<title>views</title>
<path fill="#f5f7fa" stroke="#52606d" stroke-width="1.2" stroke-dasharray="5,2" d="M381,-60C381,-60 12,-60 12,-60 6,-60 0,-54 0,-48 0,-48 0,-12 0,-12 0,-6 6,0 12,0 12,0 381,0 381,0 387,0 393,-6 393,-12 393,-12 393,-48 393,-48 393,-54 387,-60 381,-60"/>
<text text-anchor="middle" x="196.5" y="-40.6" font-family="Helvetica,sans-Serif" font-size="13.00" fill="#1f2933">Derived views in build/, never committed</text>
<text text-anchor="middle" x="196.5" y="-26.6" font-family="Helvetica,sans-Serif" font-size="13.00" fill="#1f2933">LASTCONTEXT.md (global, per role), pending, history,</text>
<text text-anchor="middle" x="196.5" y="-12.6" font-family="Helvetica,sans-Serif" font-size="13.00" fill="#1f2933">metrics, dashboard</text>
</g>
<!-- build&#45;&gt;views -->
<g id="edge7" class="edge">
<title>build&#45;&gt;views</title>
<path fill="none" stroke="#52606d" stroke-width="1.1" d="M196.5,-92.93C196.5,-85.42 196.5,-76.8 196.5,-68.43"/>
<polygon fill="#52606d" stroke="#52606d" stroke-width="1.1" points="199.3,-68.19 196.5,-60.19 193.7,-68.19 199.3,-68.19"/>
</g>
</g>
</svg>
