<?xml version="1.0" encoding="UTF-8" standalone="no"?>
<!DOCTYPE svg PUBLIC "-//W3C//DTD SVG 1.1//EN"
 "http://www.w3.org/Graphics/SVG/1.1/DTD/svg11.dtd">
<!-- Generated by graphviz version 16.1.0 (20260904.0139)
 -->
<!-- Title: state_and_context Pages: 1 -->
<svg width="346pt" height="802pt"
 viewBox="0.00 0.00 346.00 802.00" xmlns="http://www.w3.org/2000/svg" xmlns:xlink="http://www.w3.org/1999/xlink">
<g id="graph0" class="graph" transform="scale(1 1) rotate(0) translate(21.6 779.92)">
<title>state_and_context</title>
<polygon fill="white" stroke="none" points="-21.6,21.6 -21.6,-779.92 324.27,-779.92 324.27,21.6 -21.6,21.6"/>
<!-- agent -->
<g id="node1" class="node">
<title>agent</title>
<path fill="#e1effe" stroke="#1c64f2" stroke-width="1.2" d="M244.41,-758.32C244.41,-758.32 58.26,-758.32 58.26,-758.32 52.26,-758.32 46.26,-752.32 46.26,-746.32 46.26,-746.32 46.26,-734.32 46.26,-734.32 46.26,-728.32 52.26,-722.32 58.26,-722.32 58.26,-722.32 244.41,-722.32 244.41,-722.32 250.41,-722.32 256.41,-728.32 256.41,-734.32 256.41,-734.32 256.41,-746.32 256.41,-746.32 256.41,-752.32 250.41,-758.32 244.41,-758.32"/>
<text xml:space="preserve" text-anchor="middle" x="151.34" y="-736.42" font-family="Helvetica,sans-Serif" font-size="13.00" fill="#1f2933">Agent (any number in parallel)</text>
</g>
<!-- own -->
<g id="node2" class="node">
<title>own</title>
<path fill="#ede9fe" stroke="#6d28d9" stroke-width="1.2" d="M285.23,-689.32C285.23,-689.32 17.45,-689.32 17.45,-689.32 11.45,-689.32 5.45,-683.32 5.45,-677.32 5.45,-677.32 5.45,-635.8 5.45,-635.8 5.45,-629.8 11.45,-623.8 17.45,-623.8 17.45,-623.8 285.23,-623.8 285.23,-623.8 291.23,-623.8 297.23,-629.8 297.23,-635.8 297.23,-635.8 297.23,-677.32 297.23,-677.32 297.23,-683.32 291.23,-689.32 285.23,-689.32"/>
<text xml:space="preserve" text-anchor="middle" x="151.34" y="-668.26" font-family="Helvetica,sans-Serif" font-size="13.00" fill="#1f2933">The agent writes only its own files</text>
<text xml:space="preserve" text-anchor="middle" x="151.34" y="-652.66" font-family="Helvetica,sans-Serif" font-size="13.00" fill="#1f2933">context/tasks/task_NNN_context.json (delta)</text>
<text xml:space="preserve" text-anchor="middle" x="151.34" y="-637.06" font-family="Helvetica,sans-Serif" font-size="13.00" fill="#1f2933">state/tasks/task_NNN.json (task file)</text>
</g>
<!-- agent&#45;&gt;own -->
<g id="edge1" class="edge">
<title>agent&#45;&gt;own</title>
<path fill="none" stroke="#52606d" stroke-width="1.1" d="M151.34,-721.98C151.34,-715.24 151.34,-707.21 151.34,-699.14"/>
<polygon fill="#52606d" stroke="#52606d" stroke-width="1.1" points="154.14,-699.39 151.34,-691.39 148.54,-699.39 154.14,-699.39"/>
</g>
<!-- pr -->
<g id="node3" class="node">
<title>pr</title>
<path fill="#f5f7fa" stroke="#52606d" stroke-width="1.2" d="M276.57,-590.8C276.57,-590.8 26.1,-590.8 26.1,-590.8 20.1,-590.8 14.1,-584.8 14.1,-578.8 14.1,-578.8 14.1,-552.88 14.1,-552.88 14.1,-546.88 20.1,-540.88 26.1,-540.88 26.1,-540.88 276.57,-540.88 276.57,-540.88 282.57,-540.88 288.57,-546.88 288.57,-552.88 288.57,-552.88 288.57,-578.8 288.57,-578.8 288.57,-584.8 282.57,-590.8 276.57,-590.8"/>
<text xml:space="preserve" text-anchor="middle" x="151.34" y="-569.74" font-family="Helvetica,sans-Serif" font-size="13.00" fill="#1f2933">Task PR</text>
<text xml:space="preserve" text-anchor="middle" x="151.34" y="-554.14" font-family="Helvetica,sans-Serif" font-size="13.00" fill="#1f2933">the delta and task file travel with the code</text>
</g>
<!-- own&#45;&gt;pr -->
<g id="edge2" class="edge">
<title>own&#45;&gt;pr</title>
<path fill="none" stroke="#52606d" stroke-width="1.1" d="M151.34,-623.28C151.34,-615.82 151.34,-607.88 151.34,-600.37"/>
<polygon fill="#52606d" stroke="#52606d" stroke-width="1.1" points="154.14,-600.83 151.34,-592.83 148.54,-600.83 154.14,-600.83"/>
</g>
<!-- check -->
<g id="node4" class="node">
<title>check</title>
<path fill="#dcfce7" stroke="#15803d" stroke-width="1.2" d="M276.94,-507.88C276.94,-507.88 25.73,-507.88 25.73,-507.88 19.73,-507.88 13.73,-501.88 13.73,-495.88 13.73,-495.88 13.73,-454.36 13.73,-454.36 13.73,-448.36 19.73,-442.36 25.73,-442.36 25.73,-442.36 276.94,-442.36 276.94,-442.36 282.94,-442.36 288.94,-448.36 288.94,-454.36 288.94,-454.36 288.94,-495.88 288.94,-495.88 288.94,-501.88 282.94,-507.88 276.94,-507.88"/>
<text xml:space="preserve" text-anchor="middle" x="151.34" y="-486.82" font-family="Helvetica,sans-Serif" font-size="13.00" fill="#1f2933">CI: scripts/check_task_delta.py</text>
<text xml:space="preserve" text-anchor="middle" x="151.34" y="-471.22" font-family="Helvetica,sans-Serif" font-size="13.00" fill="#1f2933">Code changed without a valid delta listing</text>
<text xml:space="preserve" text-anchor="middle" x="151.34" y="-455.62" font-family="Helvetica,sans-Serif" font-size="13.00" fill="#1f2933">the files in files_touched: PR rejected</text>
</g>
<!-- pr&#45;&gt;check -->
<g id="edge3" class="edge">
<title>pr&#45;&gt;check</title>
<path fill="none" stroke="#52606d" stroke-width="1.1" d="M151.34,-540.6C151.34,-533.52 151.34,-525.58 151.34,-517.75"/>
<polygon fill="#52606d" stroke="#52606d" stroke-width="1.1" points="154.14,-517.99 151.34,-509.99 148.54,-517.99 154.14,-517.99"/>
</g>
<!-- merge -->
<g id="node5" class="node">
<title>merge</title>
<path fill="#dcfce7" stroke="#15803d" stroke-width="1.2" d="M278.72,-397.16C278.72,-397.16 23.95,-397.16 23.95,-397.16 17.95,-397.16 11.95,-391.16 11.95,-385.16 11.95,-385.16 11.95,-359.24 11.95,-359.24 11.95,-353.24 17.95,-347.24 23.95,-347.24 23.95,-347.24 278.72,-347.24 278.72,-347.24 284.72,-347.24 290.72,-353.24 290.72,-359.24 290.72,-359.24 290.72,-385.16 290.72,-385.16 290.72,-391.16 284.72,-397.16 278.72,-397.16"/>
<text xml:space="preserve" text-anchor="middle" x="151.34" y="-376.1" font-family="Helvetica,sans-Serif" font-size="13.00" fill="#1f2933">CI after the merge: scripts/merge_state.py</text>
<text xml:space="preserve" text-anchor="middle" x="151.34" y="-360.5" font-family="Helvetica,sans-Serif" font-size="13.00" fill="#1f2933">regenerates the shared state files</text>
</g>
<!-- check&#45;&gt;merge -->
<g id="edge4" class="edge">
<title>check&#45;&gt;merge</title>
<path fill="none" stroke="#52606d" stroke-width="1.1" d="M151.34,-441.91C151.34,-430.85 151.34,-418.43 151.34,-407.22"/>
<polygon fill="#52606d" stroke="#52606d" stroke-width="1.1" points="154.14,-407.42 151.34,-399.42 148.54,-407.42 154.14,-407.42"/>
<text xml:space="preserve" text-anchor="middle" x="171.51" y="-416.46" font-family="Helvetica,sans-Serif" font-size="11.00" fill="#3e4c59"> merged</text>
</g>
<!-- spr -->
<g id="node6" class="node">
<title>spr</title>
<path fill="#f5f7fa" stroke="#52606d" stroke-width="1.2" d="M223.82,-314.24C223.82,-314.24 78.85,-314.24 78.85,-314.24 72.85,-314.24 66.85,-308.24 66.85,-302.24 66.85,-302.24 66.85,-290.24 66.85,-290.24 66.85,-284.24 72.85,-278.24 78.85,-278.24 78.85,-278.24 223.82,-278.24 223.82,-278.24 229.82,-278.24 235.82,-284.24 235.82,-290.24 235.82,-290.24 235.82,-302.24 235.82,-302.24 235.82,-308.24 229.82,-314.24 223.82,-314.24"/>
<text xml:space="preserve" text-anchor="middle" x="151.34" y="-292.34" font-family="Helvetica,sans-Serif" font-size="13.00" fill="#1f2933">State PR opened by CI</text>
</g>
<!-- merge&#45;&gt;spr -->
<g id="edge5" class="edge">
<title>merge&#45;&gt;spr</title>
<path fill="none" stroke="#52606d" stroke-width="1.1" d="M151.34,-346.98C151.34,-339.6 151.34,-331.45 151.34,-323.91"/>
<polygon fill="#52606d" stroke="#52606d" stroke-width="1.1" points="154.14,-324.15 151.34,-316.15 148.54,-324.15 154.14,-324.15"/>
</g>
<!-- human -->
<g id="node7" class="node">
<title>human</title>
<path fill="#fef3c7" stroke="#b45309" stroke-width="1.2" d="M244.41,-245.24C244.41,-245.24 58.26,-245.24 58.26,-245.24 52.26,-245.24 46.26,-239.24 46.26,-233.24 46.26,-233.24 46.26,-221.24 46.26,-221.24 46.26,-215.24 52.26,-209.24 58.26,-209.24 58.26,-209.24 244.41,-209.24 244.41,-209.24 250.41,-209.24 256.41,-215.24 256.41,-221.24 256.41,-221.24 256.41,-233.24 256.41,-233.24 256.41,-239.24 250.41,-245.24 244.41,-245.24"/>
<text xml:space="preserve" text-anchor="middle" x="151.34" y="-223.34" font-family="Helvetica,sans-Serif" font-size="13.00" fill="#1f2933">Human approves the state PR</text>
</g>
<!-- spr&#45;&gt;human -->
<g id="edge6" class="edge">
<title>spr&#45;&gt;human</title>
<path fill="none" stroke="#52606d" stroke-width="1.1" d="M151.34,-277.99C151.34,-271.08 151.34,-262.97 151.34,-255.32"/>
<polygon fill="#52606d" stroke="#52606d" stroke-width="1.1" points="154.14,-255.33 151.34,-247.33 148.54,-255.33 154.14,-255.33"/>
</g>
<!-- gen -->
<g id="node8" class="node">
<title>gen</title>
<path fill="#ede9fe" stroke="#6d28d9" stroke-width="1.2" d="M290.67,-164.04C290.67,-164.04 12,-164.04 12,-164.04 6,-164.04 0,-158.04 0,-152.04 0,-152.04 0,-94.92 0,-94.92 0,-88.92 6,-82.92 12,-82.92 12,-82.92 290.67,-82.92 290.67,-82.92 296.67,-82.92 302.67,-88.92 302.67,-94.92 302.67,-94.92 302.67,-152.04 302.67,-152.04 302.67,-158.04 296.67,-164.04 290.67,-164.04"/>
<text xml:space="preserve" text-anchor="middle" x="151.34" y="-142.98" font-family="Helvetica,sans-Serif" font-size="13.00" fill="#1f2933">Generated files on main, never edited by hand</text>
<text xml:space="preserve" text-anchor="middle" x="151.34" y="-127.38" font-family="Helvetica,sans-Serif" font-size="13.00" fill="#1f2933">state/pending.json</text>
<text xml:space="preserve" text-anchor="middle" x="151.34" y="-111.78" font-family="Helvetica,sans-Serif" font-size="13.00" fill="#1f2933">context/global/lastcontext.json</text>
<text xml:space="preserve" text-anchor="middle" x="151.34" y="-96.18" font-family="Helvetica,sans-Serif" font-size="13.00" fill="#1f2933">context/roles/*/lastcontext.json</text>
</g>
<!-- human&#45;&gt;gen -->
<g id="edge7" class="edge">
<title>human&#45;&gt;gen</title>
<path fill="none" stroke="#52606d" stroke-width="1.1" d="M151.34,-208.98C151.34,-199.22 151.34,-186.47 151.34,-173.85"/>
<polygon fill="#52606d" stroke="#52606d" stroke-width="1.1" points="154.14,-173.93 151.34,-165.93 148.54,-173.93 154.14,-173.93"/>
<text xml:space="preserve" text-anchor="middle" x="171.51" y="-183.34" font-family="Helvetica,sans-Serif" font-size="11.00" fill="#3e4c59"> merged</text>
</g>
<!-- status -->
<g id="node9" class="node">
<title>status</title>
<path fill="#f5f7fa" stroke="#52606d" stroke-width="1.2" d="M290.3,-49.92C290.3,-49.92 12.37,-49.92 12.37,-49.92 6.37,-49.92 0.37,-43.92 0.37,-37.92 0.37,-37.92 0.37,-12 0.37,-12 0.37,-6 6.37,0 12.37,0 12.37,0 290.3,0 290.3,0 296.3,0 302.3,-6 302.3,-12 302.3,-12 302.3,-37.92 302.3,-37.92 302.3,-43.92 296.3,-49.92 290.3,-49.92"/>
<text xml:space="preserve" text-anchor="middle" x="151.34" y="-28.86" font-family="Helvetica,sans-Serif" font-size="13.00" fill="#1f2933">Status report</text>
<text xml:space="preserve" text-anchor="middle" x="151.34" y="-13.26" font-family="Helvetica,sans-Serif" font-size="13.00" fill="#1f2933">reads only state/pending.json from origin/main</text>
</g>
<!-- gen&#45;&gt;status -->
<g id="edge8" class="edge">
<title>gen&#45;&gt;status</title>
<path fill="none" stroke="#52606d" stroke-width="1.1" stroke-dasharray="5,2" d="M151.34,-82.39C151.34,-74.91 151.34,-67.16 151.34,-59.89"/>
<polygon fill="#52606d" stroke="#52606d" stroke-width="1.1" points="154.14,-60.01 151.34,-52.01 148.54,-60.01 154.14,-60.01"/>
</g>
</g>
</svg>
